<?xml version="1.0" encoding="UTF-8"?>
<svg width="28px" height="56px" viewBox="0 0 28 56" version="1.1" xmlns="http://www.w3.org/2000/svg" xmlns:xlink="http://www.w3.org/1999/xlink">
	<g id="maximise" stroke="none" fill="#63779a" transform="translate(2, 2)">
		<path d="M20.0025,10.25 C20.0025,10.664 19.6665,11 19.2525,11 L13.0025,11 L13.0025,4.75 C13.0025,4.336 13.3385,4 13.7525,4 C14.1665,4 14.5025,4.336 14.5025,4.75 L14.5025,8.074 L18.3485,4.272 C18.5245,4.106 18.7595,4 19.0205,4 C19.5645,4 20.0055,4.441 20.0055,4.984 C20.0055,5.246 19.8995,5.48 19.7325,5.656 L15.9055,9.5 L19.2525,9.5 C19.6665,9.5 20.0025,9.836 20.0025,10.25 Z M4.0025,13.75 C4.0025,13.336 4.3385,13 4.7525,13 L11.0025,13 L11.0025,19.25 C11.0025,19.664 10.6665,20 10.2525,20 C9.8385,20 9.5025,19.664 9.5025,19.25 L9.5025,15.926 L5.6565,19.728 C5.4805,19.894 5.2455,20 4.9845,20 C4.4405,20 3.9995,19.559 3.9995,19.016 C3.9995,18.754 4.1055,18.52 4.2725,18.344 L8.0995,14.5 L4.7525,14.5 C4.3385,14.5 4.0025,14.164 4.0025,13.75 Z"></path>
	</g>
	<g id="maximise_hover" stroke="none" fill="#006aff" transform="translate(2, 30)">
		<path d="M20.0025,10.25 C20.0025,10.664 19.6665,11 19.2525,11 L13.0025,11 L13.0025,4.75 C13.0025,4.336 13.3385,4 13.7525,4 C14.1665,4 14.5025,4.336 14.5025,4.75 L14.5025,8.074 L18.3485,4.272 C18.5245,4.106 18.7595,4 19.0205,4 C19.5645,4 20.0055,4.441 20.0055,4.984 C20.0055,5.246 19.8995,5.48 19.7325,5.656 L15.9055,9.5 L19.2525,9.5 C19.6665,9.5 20.0025,9.836 20.0025,10.25 Z M4.0025,13.75 C4.0025,13.336 4.3385,13 4.7525,13 L11.0025,13 L11.0025,19.25 C11.0025,19.664 10.6665,20 10.2525,20 C9.8385,20 9.5025,19.664 9.5025,19.25 L9.5025,15.926 L5.6565,19.728 C5.4805,19.894 5.2455,20 4.9845,20 C4.4405,20 3.9995,19.559 3.9995,19.016 C3.9995,18.754 4.1055,18.52 4.2725,18.344 L8.0995,14.5 L4.7525,14.5 C4.3385,14.5 4.0025,14.164 4.0025,13.75 Z"></path>
	</g>
</svg>