<?xml version="1.0" encoding="utf-8"?>
<!-- Generated by IcoMoon.io -->
<!DOCTYPE svg PUBLIC "-//W3C//DTD SVG 1.1//EN" "http://www.w3.org/Graphics/SVG/1.1/DTD/svg11.dtd">
<svg version="1.1" xmlns="http://www.w3.org/2000/svg" xmlns:xlink="http://www.w3.org/1999/xlink" width="32" height="32"  viewBox="0 0 32 32">
<defs>
<g id="icon-icon_messaging_error">
	<path class="path1" d="M27.284 4.686c-6.242-6.247-16.361-6.247-22.603 0-6.241 6.249-6.241 16.38 0 22.628 6.242 6.247 16.362 6.247 22.603 0 6.241-6.249 6.241-16.38 0-22.628zM24.334 24.362c-4.622 4.626-12.114 4.626-16.735 0-4.622-4.627-4.622-12.128 0-16.755 4.621-4.626 12.113-4.626 16.735 0 4.622 4.627 4.622 12.128 0 16.755z" />
	<path class="path2" d="M19.231 9.525l-3.233 3.233-3.233-3.233-3.231 3.232 3.232 3.233-3.232 3.232 3.231 3.233 3.233-3.233 3.233 3.233 3.232-3.233-3.232-3.232 3.232-3.233z" />
</g>
</defs>
<g fill="#d94141">
	<use xlink:href="#icon-icon_messaging_error" transform="translate(0 0)"></use>
</g>
</svg>