<?xml version="1.0" encoding="utf-8"?>
<!-- Generator: Adobe Illustrator 17.1.0, SVG Export Plug-In . SVG Version: 6.00 Build 0)  -->
<!DOCTYPE svg PUBLIC "-//W3C//DTD SVG 1.1//EN" "http://www.w3.org/Graphics/SVG/1.1/DTD/svg11.dtd">
<svg version="1.1" id="Layer_1" xmlns="http://www.w3.org/2000/svg" xmlns:xlink="http://www.w3.org/1999/xlink" x="0px" y="0px"
	 viewBox="0 0 30 30" enable-background="new 0 0 30 30" xml:space="preserve">
<g>
	<polygon fill="#707070" points="8,3 8,27 14,27 14,25 16,25 16,27 22,27 22,3 	"/>
	<rect x="10" y="5" fill="#FFDF6D" width="2" height="2"/>
	<rect x="14" y="5" fill="#FFDF6D" width="2" height="2"/>
	<rect x="18" y="5" fill="#FFDF6D" width="2" height="2"/>
	<rect x="10" y="9" fill="#FFDF6D" width="2" height="2"/>
	<rect x="14" y="9" fill="#FFDF6D" width="2" height="2"/>
	<rect x="18" y="9" fill="#FFDF6D" width="2" height="2"/>
	<rect x="10" y="13" fill="#FFDF6D" width="2" height="2"/>
	<rect x="14" y="13" fill="#FFDF6D" width="2" height="2"/>
	<rect x="18" y="13" fill="#FFDF6D" width="2" height="2"/>
	<rect x="10" y="17" fill="#FFDF6D" width="2" height="2"/>
	<rect x="14" y="17" fill="#FFDF6D" width="2" height="2"/>
	<rect x="18" y="17" fill="#FFDF6D" width="2" height="2"/>
	<rect x="10" y="21" fill="#FFDF6D" width="2" height="2"/>
	<rect x="14" y="21" fill="#FFDF6D" width="2" height="2"/>
	<rect x="18" y="21" fill="#FFDF6D" width="2" height="2"/>
	<rect fill="none" width="30" height="30"/>
</g>
</svg>
