<?xml version="1.0" encoding="utf-8"?>
<!-- Generator: Adobe Illustrator 17.1.0, SVG Export Plug-In . SVG Version: 6.00 Build 0)  -->
<!DOCTYPE svg PUBLIC "-//W3C//DTD SVG 1.1//EN" "http://www.w3.org/Graphics/SVG/1.1/DTD/svg11.dtd">
<svg version="1.1" id="Layer_1" xmlns="http://www.w3.org/2000/svg" xmlns:xlink="http://www.w3.org/1999/xlink" x="0px" y="0px"
	 viewBox="0 0 30 30" enable-background="new 0 0 30 30" xml:space="preserve">
<path fill="#6386C0" d="M27.9,20c0-0.3,0.1-0.7,0.1-1s0-0.7-0.1-1h-2c-0.1-0.6-0.2-1.1-0.4-1.6l1.7-1c-0.3-0.6-0.6-1.2-1-1.7l-1.7,1
	c-0.3-0.4-0.7-0.8-1.2-1.2l1-1.7c-0.5-0.4-1.1-0.7-1.7-1l-1,1.7c-0.5-0.2-1-0.3-1.6-0.4v-2c-0.3,0-0.7-0.1-1-0.1s-0.7,0-1,0.1v2
	c-0.6,0.1-1.1,0.2-1.6,0.4l-1-1.7c-0.6,0.3-1.2,0.6-1.7,1l1,1.7c-0.4,0.3-0.8,0.7-1.2,1.2l-1.7-1c-0.4,0.5-0.7,1.1-1,1.7l1.7,1
	c-0.2,0.5-0.3,1-0.4,1.6h-2c0,0.3-0.1,0.7-0.1,1s0,0.7,0.1,1h2c0.1,0.6,0.2,1.1,0.4,1.6l-1.7,1c0.3,0.6,0.6,1.2,1,1.7l1.7-1
	c0.3,0.4,0.7,0.8,1.2,1.2l-1,1.7c0.5,0.4,1.1,0.7,1.7,1l1-1.7c0.5,0.2,1,0.3,1.6,0.4v2c0.3,0,0.7,0.1,1,0.1s0.7,0,1-0.1v-2
	c0.6-0.1,1.1-0.2,1.6-0.4l1,1.7c0.6-0.3,1.2-0.6,1.7-1l-1-1.7c0.4-0.3,0.8-0.7,1.2-1.2l1.7,1c0.4-0.5,0.7-1.1,1-1.7l-1.7-1
	c0.2-0.5,0.3-1,0.4-1.6H27.9z M19,23c-2.2,0-4-1.8-4-4s1.8-4,4-4s4,1.8,4,4S21.2,23,19,23z"/>
<path fill="#6386C0" d="M14.5,8h-1.6c-0.1-0.4-0.2-0.7-0.4-1l1.2-1.2c0.2-0.2,0.2-0.5,0-0.7l-0.7-0.7c-0.2-0.2-0.5-0.2-0.7,0L11,5.6
	c-0.3-0.2-0.7-0.3-1-0.4V3.5C10,3.2,9.8,3,9.5,3h-1C8.2,3,8,3.2,8,3.5v1.6C7.6,5.2,7.3,5.4,7,5.6L5.8,4.4c-0.2-0.2-0.5-0.2-0.7,0
	L4.4,5.1c-0.2,0.2-0.2,0.5,0,0.7L5.6,7C5.4,7.3,5.2,7.6,5.1,8H3.5C3.2,8,3,8.2,3,8.5v1C3,9.8,3.2,10,3.5,10h1.6
	c0.1,0.4,0.2,0.7,0.4,1l-1.2,1.2c-0.2,0.2-0.2,0.5,0,0.7l0.7,0.7c0.2,0.2,0.5,0.2,0.7,0L7,12.4c0.3,0.2,0.7,0.3,1,0.4v1.6
	C8,14.8,8.2,15,8.5,15h1c0.3,0,0.5-0.2,0.5-0.5v-1.6c0.4-0.1,0.7-0.2,1-0.4l1.2,1.2c0.2,0.2,0.5,0.2,0.7,0l0.7-0.7
	c0.2-0.2,0.2-0.5,0-0.7L12.4,11c0.2-0.3,0.3-0.7,0.4-1h1.6c0.3,0,0.5-0.2,0.5-0.5v-1C15,8.2,14.8,8,14.5,8z M9,11c-1.1,0-2-0.9-2-2
	s0.9-2,2-2s2,0.9,2,2S10.1,11,9,11z"/>
<rect fill="none" width="30" height="30"/>
</svg>
