<?xml version="1.0" encoding="utf-8"?>
<!-- Generator: Adobe Illustrator 17.1.0, SVG Export Plug-In . SVG Version: 6.00 Build 0)  -->
<!DOCTYPE svg PUBLIC "-//W3C//DTD SVG 1.1//EN" "http://www.w3.org/Graphics/SVG/1.1/DTD/svg11.dtd">
<svg version="1.1" id="Layer_1" xmlns="http://www.w3.org/2000/svg" xmlns:xlink="http://www.w3.org/1999/xlink" x="0px" y="0px"
	 viewBox="0 0 30 30" enable-background="new 0 0 30 30" xml:space="preserve">
<g>
	<g>
		<path fill="#6386C0" d="M18.4,14.7c0.4-0.6,1-1,1.6-1s1.2,0.4,1.6,1l3.4,5.4V12L15,2H6.5C5.7,2,5,2.7,5,3.5v23
			C5,27.3,5.7,28,6.5,28h3.6L18.4,14.7z"/>
		<polygon fill="#B1C2DF" points="15,2 15,12 25,12 		"/>
		<path fill="#FFD43D" d="M20.8,15.3c-0.2-0.3-0.5-0.5-0.8-0.5s-0.6,0.2-0.8,0.5l-8.4,13.5c-0.4,0.7-0.1,1.3,0.7,1.3h17
			c0.8,0,1.1-0.6,0.7-1.3L20.8,15.3z"/>
		<g>
			<path fill="#404040" d="M19,19h2v2l-0.5,4h-1L19,21V19z M19,26H21v2H19V26z"/>
		</g>
		<path opacity="0.1" d="M18.4,14.7c0.4-0.6,1-1,1.6-1s1.2,0.4,1.6,1l3.4,5.4V12H15l3.1,3.1L18.4,14.7z"/>
	</g>
	<rect fill="none" width="30" height="30"/>
</g>
</svg>
