<?xml version="1.0" encoding="utf-8"?>
<!-- Generator: Adobe Illustrator 17.1.0, SVG Export Plug-In . SVG Version: 6.00 Build 0)  -->
<!DOCTYPE svg PUBLIC "-//W3C//DTD SVG 1.1//EN" "http://www.w3.org/Graphics/SVG/1.1/DTD/svg11.dtd">
<svg version="1.1" id="Layer_1" xmlns="http://www.w3.org/2000/svg" xmlns:xlink="http://www.w3.org/1999/xlink" x="0px" y="0px"
	 viewBox="0 0 30 30" enable-background="new 0 0 30 30" xml:space="preserve">
<g>
	<g>
		<polygon fill="#EDA133" points="14,26 10,26 8,18 12,18 		"/>
		<polygon opacity="0.1" points="8.8,21 12.8,21 12.2,19 8.2,19 		"/>
		<path fill="#F6D099" d="M24,11c1.7,0,3,1.3,3,3s-1.3,3-3,3V11z"/>
		<path fill="#F1B866" d="M8,9h4c0,0,10,0,10-5h2v20h-2c0-5-10-5-10-5H8c-2.8,0-5-2.2-5-5S5.2,9,8,9z"/>
	</g>
	<rect fill="none" width="30" height="30"/>
</g>
</svg>
