<?xml version="1.0" encoding="utf-8"?>
<!-- Generator: Adobe Illustrator 17.1.0, SVG Export Plug-In . SVG Version: 6.00 Build 0)  -->
<!DOCTYPE svg PUBLIC "-//W3C//DTD SVG 1.1//EN" "http://www.w3.org/Graphics/SVG/1.1/DTD/svg11.dtd">
<svg version="1.1" id="Layer_1" xmlns="http://www.w3.org/2000/svg" xmlns:xlink="http://www.w3.org/1999/xlink" x="0px" y="0px"
	 viewBox="0 0 30 30" enable-background="new 0 0 30 30" xml:space="preserve">
<g>
	<rect x="14" y="2" fill="#404040" width="2" height="2"/>
	<rect x="3" y="4" fill="#6EAD26" width="24" height="17"/>
	<polygon fill="#404040" points="24,28 17,21 16,21 14,21 13,21 6,28 9,28 15,22 21,28 	"/>
	<polygon opacity="0.1" points="14,23 15,22 16,23 19,23 17,21 16,21 14,21 13,21 11,23 	"/>
	<polygon fill="#FFFFFF" points="19,7 21,9 15,15 11,11 6,16 7,17 11,13 15,17 22,10 24,12 24,7 	"/>
	<rect fill="none" width="30" height="30"/>
</g>
</svg>
