<?xml version="1.0" encoding="utf-8"?>
<!-- Generator: Adobe Illustrator 17.1.0, SVG Export Plug-In . SVG Version: 6.00 Build 0)  -->
<!DOCTYPE svg PUBLIC "-//W3C//DTD SVG 1.1//EN" "http://www.w3.org/Graphics/SVG/1.1/DTD/svg11.dtd">
<svg version="1.1" id="Layer_1" xmlns="http://www.w3.org/2000/svg" xmlns:xlink="http://www.w3.org/1999/xlink" x="0px" y="0px"
	 viewBox="0 0 30 30" enable-background="new 0 0 30 30" xml:space="preserve">
<g>
	<g>
		<g>
			<path fill="#6386C0" d="M17.3,15.3c0.2-0.2,0.4-0.3,0.7-0.3c0.1,0,0.3,0,0.4,0.1l1.1-1.1c-1.4-1.3-2.7-2-4.5-2c-0.6,0-1-0.4-1-1
				v-1c0-0.4,0.2-0.8,0.6-0.9c1.2-0.5,2.5-0.8,3.9-0.8c0,0,0,0,0,0c2.7,0,5.3,1.1,7.2,3l2,2c0.1,0.1,0.2,0.2,0.2,0.3
				C27.2,7.1,21.7,2,15,2C7.8,2,2,7.8,2,15c0,4.2,2,8,5.2,10.4L17.3,15.3z"/>
			<path fill="#6386C0" d="M26.3,20.7l-2-2C24.1,18.5,24,18.3,24,18c-0.3,0-0.5-0.1-0.7-0.3l-0.2-0.2l-1.1,1.1
				c0.2,0.4,0.1,0.8-0.2,1.1l-8.2,8.2C14,28,14.5,28,15,28c5.1,0,9.4-2.9,11.6-7.1C26.5,20.8,26.4,20.8,26.3,20.7z"/>
		</g>
		<path fill="#FFFFFF" d="M25,12l2,2l-0.4,0.4l1,1L28,15l2,2l-3,3l-2-2l0.4-0.4l-1-1L24,17l-0.9-0.9l-2.5,2.5L21,19L10,30l-3-3
			l11-11l0.4,0.4l2.5-2.5C19.2,12.3,17.5,11,15,11v-1C18.3,8.6,22.3,9.3,25,12z"/>
		<path fill="#707070" d="M28,15l-0.4,0.4l-1-1L27,14l-2-2c-2.7-2.7-6.7-3.4-10-2v1c2.5,0,4.2,1.3,5.9,2.9l-4,4l2.1,2.1l4-4L24,17
			l0.4-0.4l1,1L25,18l2,2l3-3L28,15z"/>
		
			<rect x="11.9" y="15.2" transform="matrix(0.7071 0.7071 -0.7071 0.7071 20.364 -3.163)" fill="#404040" width="4.2" height="15.6"/>
		<g>
			<path fill="#8AA4D0" d="M7.8,24.7L8.6,24c-0.3-0.4-0.5-0.8-0.8-1.3c0.5,0.2,1,0.3,1.6,0.5l0.8-0.8c-1.1-0.3-2.1-0.6-3-1
				c-0.4-1-0.7-2-0.9-3.1c1.6,0.3,3.3,0.5,4.8,0.6c0.1,0.7,0.1,1.5,0.2,2.4l0.9-0.9c0-0.5-0.1-0.9-0.1-1.4c0.5,0,1,0,1.5,0.1l1-1
				c-0.9,0-1.7,0-2.5-0.1C12,17,12,16,12,15s0-2,0.1-2.9C13,12,14,12,15,12c-0.5,0-1-0.4-1-1c-0.5,0-1.1,0-1.9,0.1
				c0.1-1.4,0.3-2.8,0.5-3.9C13.4,7.1,14.2,7,15,7s1.6,0.1,2.4,0.1c0.1,0.4,0.1,0.8,0.2,1.2c0.3,0,0.6,0,0.9,0c0,0,0,0,0,0
				c0,0,0,0,0.1,0c0-0.3-0.1-0.7-0.1-1C20,7.6,21.5,8,22.8,8.6c0.1,0.3,0.2,0.5,0.3,0.8c0.4,0.2,0.9,0.5,1.3,0.8
				c-0.1-0.3-0.2-0.6-0.2-0.9c1.7,1,2.9,2.3,3.5,3.7c-0.1-0.1-0.2-0.1-0.3-0.1l0.4,0.4c0.1,0.1,0.2,0.2,0.2,0.3
				c-0.1-1.1-0.4-2.1-0.7-3c-0.9-1.1-2.1-2-3.6-2.7c-0.8-1.9-2-3.5-3.3-4.7C18.7,2.4,16.9,2,15,2c0.9,0,1.6,1.6,2.2,4.1
				C16.5,6,15.7,6,15,6s-1.5,0-2.2,0.1C13.4,3.6,14.1,2,15,2c-1.9,0-3.7,0.4-5.3,1.1C8.4,4.3,7.2,5.9,6.4,7.9
				c-1.5,0.7-2.7,1.7-3.6,2.7C2.3,12,2,13.4,2,15c0-0.7,1.2-1.4,3.1-1.9C5,13.7,5,14.3,5,15s0,1.3,0.1,1.9C3.2,16.4,2,15.7,2,15
				c0,1.6,0.3,3,0.8,4.4c0.9,1.1,2.1,2,3.6,2.7C6.8,23.1,7.3,24,7.8,24.7z M16.9,2.3c2.2,0.7,4.1,2.5,5.3,5c-1.2-0.5-2.5-0.8-4-1
				C17.9,4.7,17.5,3.3,16.9,2.3z M13.1,2.3c-0.6,1-1,2.4-1.4,4c-1.4,0.2-2.8,0.6-4,1C9.1,4.8,10.9,3,13.1,2.3z M7.2,8.6
				C8.5,8,10,7.6,11.6,7.3c-0.2,1.3-0.3,2.7-0.4,3.9c-1.5,0.1-3.2,0.3-4.8,0.6C6.5,10.6,6.8,9.6,7.2,8.6z M2.4,17
				c0.7,0.4,1.7,0.8,2.8,1.1c0.1,0.9,0.4,1.8,0.6,2.7C4.2,19.7,3,18.4,2.4,17z M5.2,12c-1.1,0.3-2.1,0.6-2.8,1.1
				c0.6-1.4,1.8-2.7,3.5-3.7C5.6,10.2,5.4,11.1,5.2,12z M6,15c0-0.7,0.1-1.5,0.1-2.2c1.4-0.3,3.1-0.5,4.9-0.7C11,13.6,11,14.6,11,15
				s0,1.4,0.1,2.9c-1.9-0.1-3.5-0.4-4.9-0.7C6.1,16.5,6,15.7,6,15z"/>
			<path fill="#8AA4D0" d="M25.4,19.8c-0.4,0.3-0.8,0.6-1.3,0.9c0.2-0.6,0.3-1.1,0.4-1.7l-0.3-0.3C24.1,18.5,24,18.3,24,18
				c-0.3,0-0.5-0.1-0.7-0.3l-0.2-0.2L22,18.5c0.6-0.1,1.1-0.2,1.7-0.3c-0.2,1.1-0.5,2.1-0.9,3.1c-1.2,0.6-2.6,1-4.1,1.3l-1.7,1.7
				C16.5,26.6,15.8,28,15,28c1.9,0,3.7-0.4,5.3-1.1c1.4-1.2,2.5-2.8,3.3-4.7c1-0.5,1.8-1,2.5-1.6L25.4,19.8z M16.9,27.7
				c0.6-1,1-2.4,1.4-4c1.4-0.2,2.8-0.6,4-1C20.9,25.2,19.1,27,16.9,27.7z"/>
			<path fill="#8AA4D0" d="M19,14.5c0-0.2,0-0.6,0-0.9c-0.3-0.3-0.7-0.5-1-0.7c0,0.7,0.1,1.4,0.1,2.2c0.1,0,0.3,0,0.4,0.1L19,14.5z"
				/>
			<path fill="#8AA4D0" d="M14.1,27.3l-0.6,0.6C14,28,14.5,28,15,28C14.7,28,14.4,27.8,14.1,27.3z"/>
		</g>
	</g>
	<rect fill="none" width="30" height="30"/>
</g>
</svg>
