<?xml version="1.0" encoding="utf-8"?>
<!-- Generator: Adobe Illustrator 17.1.0, SVG Export Plug-In . SVG Version: 6.00 Build 0)  -->
<!DOCTYPE svg PUBLIC "-//W3C//DTD SVG 1.1//EN" "http://www.w3.org/Graphics/SVG/1.1/DTD/svg11.dtd">
<svg version="1.1" id="Layer_1" xmlns="http://www.w3.org/2000/svg" xmlns:xlink="http://www.w3.org/1999/xlink" x="0px" y="0px"
	 viewBox="0 0 30 30" enable-background="new 0 0 30 30" xml:space="preserve">
<g>
	<g>
		<g>
			<path fill="#FCD0CA" d="M26.8,13h-7.2c0.3,0.6,0.4,1.3,0.4,2s-0.2,1.4-0.4,2h7.2c0.1-0.7,0.2-1.3,0.2-2S26.9,13.7,26.8,13z"/>
			<path fill="#FCD0CA" d="M15,10c0.7,0,1.4,0.2,2,0.4V3.2C16.3,3.1,15.7,3,15,3s-1.3,0.1-2,0.2v7.2C13.6,10.2,14.3,10,15,10z"/>
			<path fill="#FCD0CA" d="M10,15c0-0.7,0.2-1.4,0.4-2H3.2C3.1,13.7,3,14.3,3,15s0.1,1.3,0.2,2h7.2C10.2,16.4,10,15.7,10,15z"/>
			<path fill="#FCD0CA" d="M15,20c-0.7,0-1.4-0.2-2-0.4v7.2c0.7,0.1,1.3,0.2,2,0.2s1.3-0.1,2-0.2v-7.2C16.4,19.8,15.7,20,15,20z"/>
		</g>
		<path fill="#F5452B" d="M19.6,17h7.2C26,22,22,26,17,26.8v-7.2C18.2,19.1,19.1,18.2,19.6,17z M13,10.4V3.2C8,4,4,8,3.2,13h7.2
			C10.9,11.8,11.8,10.9,13,10.4z M19.6,13h7.2C26,8,22,4,17,3.2v7.2C18.2,10.9,19.1,11.8,19.6,13z M10.4,17H3.2C4,22,8,26,13,26.8
			v-7.2C11.8,19.1,10.9,18.2,10.4,17z"/>
	</g>
	<rect fill="none" width="30" height="30"/>
</g>
</svg>
