<?xml version="1.0" encoding="utf-8"?>
<!-- Generator: Adobe Illustrator 17.1.0, SVG Export Plug-In . SVG Version: 6.00 Build 0)  -->
<!DOCTYPE svg PUBLIC "-//W3C//DTD SVG 1.1//EN" "http://www.w3.org/Graphics/SVG/1.1/DTD/svg11.dtd">
<svg version="1.1" id="Layer_1" xmlns="http://www.w3.org/2000/svg" xmlns:xlink="http://www.w3.org/1999/xlink" x="0px" y="0px"
	 viewBox="0 0 30 30" enable-background="new 0 0 30 30" xml:space="preserve">
<g>
	<g>
		<path fill="#B1C2DF" d="M15,22.5c0-1.4,1.1-2.5,2.5-2.5h10.4c-0.3-0.8-1.2-1.3-2.2-1.6c-2.3-0.8-6.1-1.7-4.5-3.5
			c1.5-1.6,2.1-4.3,2.1-6.5C23.4,5.4,21,3,18,3s-5.4,2.4-5.4,5.4c0,2.2,0.6,4.8,2.1,6.5c1.5,1.7-1.6,2.6-3.9,3.4
			c0.1,0.1,0.2,0.2,0.2,0.3c0.5,0.6,0.5,1.7,0.3,2.4c-0.2,0.8-0.7,1.5-1.5,1.9C9.9,22.9,9.8,23,9.7,23H15V22.5z"/>
		<path fill="#9AB0D6" d="M12,17.8c0.4,0.4,1.8,2,6,2c4.2,0,5.6-1.6,6-2c-2-0.7-4-1.6-2.7-3c0.1-0.1,0.1-0.2,0.2-0.3
			c-0.9,1-2.1,1.7-3.5,1.7c-1.3,0-2.4-0.6-3.3-1.5c0,0,0.1,0.1,0.1,0.1C16.1,16.2,14.1,17.1,12,17.8z"/>
		<path fill="#404040" d="M30,28.5c0,0.8-0.7,1.5-1.5,1.5h-11c-0.8,0-1.5-0.7-1.5-1.5v-6c0-0.8,0.7-1.5,1.5-1.5h11
			c0.8,0,1.5,0.7,1.5,1.5V28.5z"/>
		<rect x="24" y="23" fill="#9F9F9F" width="4" height="1"/>
		<rect x="24" y="25" fill="#9F9F9F" width="4" height="1"/>
		<path fill="#B1C2DF" d="M23,27.5c0,0.3-0.2,0.5-0.5,0.5h-4c-0.3,0-0.5-0.2-0.5-0.5v-4c0-0.3,0.2-0.5,0.5-0.5h4
			c0.3,0,0.5,0.2,0.5,0.5V27.5z"/>
		<g>
			<path fill="#6386C0" d="M15,22.5c0-0.6,0.3-1.2,0.7-1.7c-0.8-0.5-1.2-1.2-0.4-2c1.5-1.6,2.1-4.3,2.1-6.5C17.4,9.4,15,7,12,7
				s-5.4,2.4-5.4,5.4c0,2.2,0.6,4.8,2.1,6.5c1.7,1.8-2.1,2.8-4.5,3.5c-1.2,0.4-2.3,1-2.3,2.3v1.2C2,26.5,2.5,27,3.2,27H15V22.5z"/>
		</g>
		<path opacity="0.1" d="M15,22.5c0-0.7,0.3-1.2,0.7-1.7c-0.8-0.5-1.2-1.2-0.4-2c0.1-0.1,0.1-0.2,0.2-0.3c-0.9,1-2.1,1.7-3.5,1.7
			c-1.3,0-2.4-0.6-3.3-1.5c0,0,0.1,0.1,0.1,0.1c1.3,1.4-0.7,2.3-2.7,3c0.4,0.4,1.8,2,6,2c1.2,0,2.2-0.1,3-0.3V22.5z"/>
	</g>
	<rect fill="none" width="30" height="30"/>
</g>
</svg>
