<svg width="24" height="24" viewBox="0 0 24 24" fill="none" xmlns="http://www.w3.org/2000/svg">
<path d="M5 9.5C9.125 8.8125 10.5374 7.23296 10.5 4C10.5718 7.76035 11.6184 9.09281 16 9.5C11.7586 10.0133 10.8405 11.4419 10.5 15C10.0552 11.2286 8.79637 10.0855 5 9.5Z" fill="#607799"/>
<path d="M16 9.5H10.5H5M16 9.5C11.6184 9.09281 10.5718 7.76035 10.5 4C10.5374 7.23296 9.125 8.8125 5 9.5M16 9.5C11.7586 10.0133 10.8405 11.4419 10.5 15C10.0552 11.2286 8.79637 10.0855 5 9.5" stroke="#607799" stroke-width="1.5"/>
<path d="M14.5 5C16.375 4.6875 17.017 3.96953 17 2.5C17.0326 4.20925 17.5084 4.81491 19.5 5C17.5721 5.23332 17.1548 5.88268 17 7.5C16.7978 5.78571 16.2256 5.26613 14.5 5Z" fill="#607799"/>
<path d="M19.5 5H17H14.5M19.5 5C17.5084 4.81491 17.0326 4.20925 17 2.5C17.017 3.96953 16.375 4.6875 14.5 5M19.5 5C17.5721 5.23332 17.1548 5.88268 17 7.5C16.7978 5.78571 16.2256 5.26613 14.5 5" stroke="#607799"/>
<path d="M19.5 17.5H7L4.5 21H2.5V5H6.5" stroke="#607799" stroke-width="1.5"/>
<path d="M16 12.5C17.875 12.1875 18.517 11.4695 18.5 10C18.5326 11.7092 19.0084 12.3149 21 12.5C19.0721 12.7333 18.6548 13.3827 18.5 15C18.2978 13.2857 17.7256 12.7661 16 12.5Z" fill="#607799"/>
<path d="M21 12.5H18.5H16M21 12.5C19.0084 12.3149 18.5326 11.7092 18.5 10C18.517 11.4695 17.875 12.1875 16 12.5M21 12.5C19.0721 12.7333 18.6548 13.3827 18.5 15C18.2978 13.2857 17.7256 12.7661 16 12.5" stroke="#607799"/>
</svg>
