<svg xmlns="http://www.w3.org/2000/svg" version="1.1" xmlns:xlink="http://www.w3.org/1999/xlink" xmlns:svgjs="http://svgjs.dev/svgjs" width="128" height="128"><svg width="128" height="128" viewBox="0 0 128 128" fill="none" xmlns="http://www.w3.org/2000/svg">
<rect width="128" height="128" rx="64" fill="white"></rect>
<path d="M43.8092 75.7305C43.2405 75.1897 42.4842 74.8823 41.7051 74.9051C37.4743 75.0246 32.6009 70.7893 30.258 68.6716C29.8656 68.3187 29.2629 68.7399 29.4562 69.2352C30.2751 71.3586 32.3109 75.0303 37.281 78.3207C39.6068 79.8577 42.615 80.575 45.8791 81.0019C46.8344 81.1271 47.7841 81.2182 48.7053 81.2752C49.2228 81.3036 49.4787 80.6319 49.0636 80.3074C47.2837 78.9013 45.5265 77.3757 43.8149 75.7476V75.7305H43.8092Z" fill="#E2C06B"></path>
<path d="M106.157 61.5101C106.458 62.3071 107.641 62.1648 107.737 61.3165C108.374 56.1932 105.707 50.233 102.443 46.4644C99.1734 42.6959 94.3568 40.0943 89.2446 40.1114C83.9219 40.1342 79.2476 42.878 75.574 46.5726C73.7031 48.4568 72.1223 50.5916 70.5755 52.7434C67.7322 56.7226 66.612 57.3829 68.3862 59.4266L69.9841 61.2881C70.8769 62.3298 71.7526 62.8593 72.8672 62.0566C75.4375 60.2179 78.7301 58.1116 81.4426 56.5006C84.4622 54.7131 87.7661 53.0053 91.3316 52.7093C94.8118 52.4189 98.4682 53.3127 101.312 55.3165C103.484 56.8421 105.258 58.9826 106.145 61.5215L106.157 61.5101Z" fill="#264759"></path>
<path d="M59.7308 84.828C82.7615 101.513 117.308 95.7636 119.906 64.8696C120.737 54.9871 116.13 42.3039 102.739 36.3608C95.2664 33.0476 86.9241 33.042 80.6234 37.4936C79.6623 38.1767 80.4414 39.6682 81.5389 39.2469C87.652 36.8845 95.4199 37.4424 101.664 42.8162C109.494 49.562 113.094 62.4957 105.957 71.0347C103.603 73.8469 100.344 75.919 96.6823 76.4427C90.1825 77.3593 83.5747 75.1448 78.1554 71.6325C75.2211 69.7368 72.5541 67.4313 70.2283 64.8127C67.4419 61.6703 64.7919 58.4027 62.341 54.9871C58.2239 49.2319 54.7096 43.431 48.6989 39.4291C43.7686 36.1558 37.8943 34.2716 31.9518 34.6473C26.0094 35.0173 19.9873 37.9149 15.4664 42.1502C7.32323 49.8011 5.85609 62.6437 10.9911 72.6173C14.6874 79.8071 21.045 84.9703 28.2271 88.3518C29.5521 88.9837 30.4051 87.4637 29.5862 86.7123C22.8078 80.5358 16.5355 70.7558 18.7533 62.8031C20.0953 57.9359 22.7396 55.9549 26.8851 56.0061C29.9729 56.0232 34.0616 59.6779 36.0405 62.342C36.7684 63.3155 37.4906 64.2832 38.2469 65.2282C43.6321 71.9911 48.7273 77.2283 59.7308 84.8166V84.828Z" fill="#36677D"></path>
<path d="M55.7955 84.5708C55.534 84.4 55.2383 84.2975 54.9255 84.2918C53.2707 84.2634 49.6881 84.252 47.2884 83.9844C34.4424 82.863 22.5176 71.2215 26.14 59.0563C26.2935 58.5439 25.8215 58.0487 25.304 58.1739C20.8173 59.3011 19.4582 65.3467 20.9879 70.5156C21.005 70.5668 21.022 70.6124 21.0391 70.6636C26.8849 86.5461 45.6961 98.1477 59.7079 90.0414C59.8501 89.956 59.9809 89.8535 60.0946 89.734C60.0946 89.734 60.0946 89.7226 60.1117 89.7169C60.777 88.994 60.6519 87.8327 59.833 87.2862L55.8069 84.5765L55.7955 84.5708Z" fill="#264759"></path>
<path d="M34.9769 65.0066C31.292 60.3671 27.9767 57.9648 27.9824 63.5322C27.9824 64.5228 28.5227 65.4507 29.3927 65.9801C32.8615 68.075 36.0688 71.4336 39.7707 72.3957C40.4019 72.5608 40.8682 71.8207 40.4247 71.3596C38.5765 69.4071 36.8365 67.352 34.9769 65.0237V65.0123V65.0066Z" fill="#94BFCE"></path>
<path d="M85.3659 73.1086C84.4163 72.7215 84.1774 71.4918 84.9053 70.7746C87.0833 68.6398 89.3124 66.5335 91.6496 64.5753C92.9177 63.5107 94.2939 62.5259 95.7098 61.6549C97.1258 60.7783 98.701 60.0553 100.191 59.2356C101.078 58.746 102.147 59.0079 102.744 59.8048C104.063 61.5639 105.94 64.8257 105.036 68.2413C103.7 73.3135 96.3979 74.4406 96.3979 74.4406C96.3979 74.4406 90.6829 75.2831 85.3602 73.1086H85.3659Z" fill="#94BFCE"></path>
<path d="M98.2862 57.8781C99.3439 57.3942 99.2871 55.8458 98.1725 55.5042C95.8239 54.7756 92.1504 53.7395 86.7311 56.1304C80.8966 58.7035 76.5123 62.176 74.448 63.6789C73.8452 64.1172 73.7429 64.9825 74.2319 65.5461C75.3238 66.7928 77.4847 68.882 80.8625 70.5101C81.3914 70.7663 82.0283 70.6296 82.4036 70.1799C84.4052 67.7605 92.7645 60.3942 98.2862 57.8838V57.8781Z" fill="#E2C06B"></path>
</svg><style>@media (prefers-color-scheme: light) { :root { filter: none; } }
@media (prefers-color-scheme: dark) { :root { filter: none; } }
</style></svg>