<?xml version="1.0" encoding="utf-8"?>
<!-- Generator: Adobe Illustrator 17.1.0, SVG Export Plug-In . SVG Version: 6.00 Build 0)  -->
<!DOCTYPE svg PUBLIC "-//W3C//DTD SVG 1.1//EN" "http://www.w3.org/Graphics/SVG/1.1/DTD/svg11.dtd">
<svg version="1.1" id="Layer_1" xmlns="http://www.w3.org/2000/svg" xmlns:xlink="http://www.w3.org/1999/xlink" x="0px" y="0px"
	 viewBox="0 0 20 20" enable-background="new 0 0 20 20" xml:space="preserve">
<g>
	<circle fill="#6EAD26" cx="10" cy="10" r="9"/>
</g>
<g>
	<circle fill="#92C15C" cx="10" cy="10" r="7"/>
</g>
<g>
	<path fill="#FFFFFF" d="M7.4,6.3C8.1,5.6,9,5.2,10.1,5.2c1.4,0,2.5,0.5,3.2,1.4c0.4,0.5,0.6,1.1,0.6,1.6H12
		c-0.1-0.4-0.3-0.7-0.4-0.9c-0.3-0.4-0.8-0.6-1.4-0.6C9.5,6.7,9,7,8.6,7.5S8.1,8.8,8.1,9.8s0.2,1.7,0.6,2.2s0.9,0.7,1.5,0.7
		c0.6,0,1.1-0.2,1.4-0.6c0.2-0.2,0.3-0.6,0.4-1h1.8c-0.2,0.9-0.5,1.7-1.2,2.3s-1.5,0.9-2.4,0.9c-1.2,0-2.2-0.4-2.9-1.2
		c-0.7-0.8-1.1-1.9-1.1-3.3C6.2,8.2,6.6,7.1,7.4,6.3z"/>
</g>
<rect fill="none" width="20" height="20"/>
</svg>
