<?xml version="1.0" encoding="utf-8"?>
<!DOCTYPE svg PUBLIC "-//W3C//DTD SVG 1.1//EN" "http://www.w3.org/Graphics/SVG/1.1/DTD/svg11.dtd">
<svg version="1.1" id="Layer_1" xmlns="http://www.w3.org/2000/svg" xmlns:xlink="http://www.w3.org/1999/xlink" x="0px" y="0px"
	 width="40px" height="920px" viewBox="0 0 40 920" xml:space="preserve">
	<!--default icon -->
	<g transform="translate(5, 5)">
		<path fill="#6386C0" d="M24.999,12v14.5c0,0.828-0.672,1.5-1.5,1.5h-17c-0.829,0-1.5-0.672-1.5-1.5v-23c0-0.829,0.671-1.5,1.5-1.5
	h8.5L24.999,12z"/>
		<polygon fill="#B1C2DF" points="14.998,2 14.998,12 24.998,12 "/>
		<polygon opacity="0.1" points="25,22 25,12 15,12 "/>
	</g>
	<!-- calendar, icon -->
	<g transform="translate(5,45)">
		<path fill="#F5452B" d="M26,14c0,0.828-0.672,1.5-1.5,1.5h-19C4.671,15.5,4,14.828,4,14V5.5C4,4.671,4.671,4,5.5,4h19
			C25.328,4,26,4.671,26,5.5V14z"/>
		<rect x="12" y="6" fill="#FFFFFF" width="6" height="1"/>
		<path fill="#D8E1EF" d="M4,11v13.5C4,25.328,4.671,26,5.5,26H18l8-8v-7H4z"/>
		<g>
			<path fill="#8AA4D0" d="M9.132,20.33c0.238-0.566,0.801-1.166,1.688-1.799c0.77-0.551,1.268-0.945,1.494-1.184
				c0.348-0.371,0.521-0.777,0.521-1.219c0-0.359-0.1-0.658-0.299-0.896s-0.484-0.357-0.855-0.357c-0.508,0-0.854,0.189-1.037,0.568
				c-0.105,0.219-0.168,0.566-0.188,1.043H8.833c0.027-0.723,0.158-1.307,0.393-1.752c0.446-0.848,1.237-1.271,2.375-1.271
				c0.899,0,1.615,0.249,2.146,0.747s0.798,1.157,0.798,1.978c0,0.629-0.188,1.188-0.563,1.676
				c-0.247,0.324-0.652,0.686-1.215,1.084l-0.669,0.475c-0.418,0.297-0.705,0.512-0.859,0.645s-0.284,0.287-0.39,0.463h3.709V22
				H8.739C8.755,21.391,8.886,20.834,9.132,20.33z"/>
			<path fill="#8AA4D0" d="M15.678,18.35c0.215-0.387,0.531-0.678,0.946-0.873c-0.412-0.273-0.68-0.569-0.803-0.888
				s-0.185-0.616-0.185-0.894c0-0.617,0.233-1.144,0.698-1.579c0.466-0.436,1.124-0.653,1.974-0.653s1.508,0.218,1.973,0.653
				c0.467,0.436,0.699,0.962,0.699,1.579c0,0.277-0.062,0.575-0.185,0.894s-0.39,0.595-0.8,0.829
				c0.42,0.234,0.736,0.545,0.947,0.932c0.213,0.387,0.318,0.818,0.318,1.295c0,0.715-0.266,1.323-0.795,1.825
				s-1.27,0.753-2.22,0.753s-1.67-0.251-2.158-0.753c-0.489-0.502-0.733-1.11-0.733-1.825C15.354,19.168,15.462,18.736,15.678,18.35
				z M17.414,20.506c0.217,0.23,0.517,0.346,0.899,0.346s0.683-0.115,0.899-0.346s0.325-0.555,0.325-0.973
				c0-0.434-0.11-0.763-0.331-0.987s-0.519-0.337-0.894-0.337s-0.673,0.112-0.894,0.337s-0.331,0.554-0.331,0.987
				C17.089,19.951,17.197,20.275,17.414,20.506z M17.521,16.639c0.189,0.195,0.453,0.293,0.79,0.293c0.341,0,0.604-0.098,0.79-0.293
				s0.279-0.447,0.279-0.756c0-0.336-0.094-0.599-0.279-0.788s-0.449-0.284-0.79-0.284c-0.337,0-0.601,0.095-0.79,0.284
				c-0.19,0.189-0.285,0.452-0.285,0.788C17.235,16.191,17.33,16.443,17.521,16.639z"/>
		</g>
		<polygon fill="#6386C0" points="18,26 18,18 26,18"/>

	</g>
	<!--custom portlet -->
	<g transform="translate(5, 85)">
		<path fill="#6386C0" d="M23,15c0.691,0,1.359,0.098,2,0.263V12L15,2H6.5C5.671,2,5,2.671,5,3.5v23C5,27.328,5.671,28,6.5,28h10.265
	C15.663,26.629,15,24.892,15,23C15,18.589,18.589,15,23,15z"/>
		<polygon fill="#B1C2DF" points="15,2 15,12 25,12 "/>
		<path opacity="0.1" d="M25.002,15.264V12h-10l4.051,4.051C20.219,15.385,21.564,15,23,15C23.692,15,24.36,15.098,25.002,15.264z"/>
		<circle fill="#6EAD26" cx="23" cy="23" r="7"/>
		<path fill="#FFFFFF" d="M22.943,20.076c0.625,0,1.096,0.188,1.414,0.558c0.18,0.21,0.324,0.519,0.439,0.929h1.785
			c-0.026-0.533-0.223-1.066-0.584-1.596c-0.658-0.943-1.698-1.415-3.123-1.415c-1.063,0-1.939,0.352-2.628,1.056
			c-0.792,0.809-1.188,1.959-1.188,3.451c0,1.381,0.348,2.467,1.045,3.26c0.695,0.789,1.652,1.184,2.869,1.184
			c0.983,0,1.79-0.292,2.42-0.875c0.629-0.584,1.02-1.343,1.173-2.274H24.79c-0.116,0.44-0.265,0.772-0.442,0.991
			c-0.321,0.41-0.789,0.616-1.402,0.616c-0.598,0-1.089-0.239-1.478-0.718c-0.388-0.477-0.582-1.195-0.582-2.154
			s0.185-1.701,0.552-2.224C21.805,20.339,22.305,20.076,22.943,20.076z"/>

	</g>

	<!--list, searchresults-->
	<g transform="translate(5, 125)">
		<path fill="#6386C0" d="M15.124,25.21l0.076-0.209l0.157-0.156l7.572-7.572l0.001-0.001h-0.001l0.707-0.707l1.362-1.362V12l-10-10
			h-8.5c-0.829,0-1.5,0.671-1.5,1.5v23c0,0.828,0.671,1.5,1.5,1.5h7.61L15.124,25.21z"/>
		<rect x="7.998" y="9" fill="#D8E1EF" width="9" height="1"/>
		<rect x="7.998" y="14" fill="#D8E1EF" width="12" height="1"/>
		<rect x="7.998" y="17" fill="#D8E1EF" width="9" height="1"/>
		<rect x="7.998" y="20" fill="#D8E1EF" width="7" height="1"/>
		<polygon fill="#B1C2DF" points="14.998,2 14.998,12 24.998,12 		"/>

		<rect x="25.172" y="15.271" transform="matrix(0.7072 -0.707 0.707 0.7072 -4.2559 24.2668)" fill="#FAA295" width="4" height="4.001"/>
		<polygon fill="#FFD43D" points="16.063,25.552 14.443,30 18.892,28.38 26.465,20.808 23.636,17.979 		"/>
		<polygon opacity="0.1" points="22.929,17.272 22.93,17.271 22.929,17.271 23.636,16.564 25,15.201 25,12 15,12 21.601,18.601"/>
	</g>

	<!--login audit-->
	<g transform="translate(5, 167)">

		<g  transform="scale(1.3333333333)">
		<path fill="#6386C0" d="M14,1H6C5.4,1,5,1.4,5,2v6v3h1V9.5C6,7,8,5,10.5,5S15,7,15,9.5V11c0,0.6-0.4,1-1,1h-2c-0.6,0-1-0.4-1-1V9.5
		C11,9.2,10.8,9,10.5,9S10,9.2,10,9.5v1.8c0.6,0.3,1,1,1,1.7v5c0,0.4-0.1,0.7-0.3,1h0H14h4c0.6,0,1-0.4,1-1V6L14,1z"/>

		<polygon fill="#B1C2DF" points="14,1 14,6 19,6 	"/>
		<polygon opacity="0.1" points="19,11 19,6 14,6 	"/>

		<path fill="#EDA133" d="M10.5,6C8.6,6,7,7.6,7,9.5V12H2c-0.6,0-1,0.4-1,1v5c0,0.6,0.4,1,1,1h7c0.6,0,1-0.4,1-1v-5c0-0.6-0.4-1-1-1
		V9.5C9,8.7,9.7,8,10.5,8S12,8.7,12,9.5V11h2V9.5C14,7.6,12.4,6,10.5,6z"/>
		<path fill="#EDA133" stroke="#FFFFFF" stroke-linecap="round" stroke-linejoin="round" stroke-miterlimit="10" d="M9,8"/>
		</g>
	</g>

	<!--trend chart-->
	<g transform="translate(5, 207)">
		<g  transform="scale(1.3333333333)">
			<path fill="#6386C0" d="M14,1H6C5.4,1,5,1.4,5,2v6h2c0.6,0,1,0.4,1,1v5h2c0.6,0,1,0.4,1,1v4h3h4c0.6,0,1-0.4,1-1V6L14,1z"/>
			<polygon fill="#B1C2DF" points="14,1 14,6 19,6 "/>
			<polygon opacity="0.1" points="19,11 19,6 14,6 "/>
			<rect x="1" y="12" fill="#6EAD26" width="3" height="7"/>
			<rect x="4" y="9" fill="#F5452B" width="3" height="10"/>
			<rect x="7" y="15" fill="#EDA133" width="3" height="4"/>
		</g>

	</g>

	<!--report snapshot-->
	<g transform="translate(6, 247)">
		<g  transform="scale(1.3333333333)">
			<path fill="#6386C0" d="M14,1H8C7.4,1,7,1.4,7,2h1c0.3,0,0.5,0.1,0.7,0.3l5,5C13.9,7.5,14,7.7,14,8v9h4c0.6,0,1-0.4,1-1V6L14,1z"/>
			<g>
	<path fill="#8AA4D0" d="M16,4v1h-4.6L13,6.6V6h1v2v6v1h2h1V6V5L16,4z M16,14h-1V6h1V14z"/>
				<polygon fill="#8AA4D0" points="10,3 9.4,3 10.4,4 16,4 15,3 	"/>
</g>
			<polygon fill="#B1C2DF" points="14,1 14,6 19,6 "/>
			<polygon opacity="0.1" points="19,11 19,6 14,6 "/>
			<path fill="#6386C0" d="M13,8v10c0,0.6-0.4,1-1,1H2c-0.6,0-1-0.4-1-1V4c0-0.6,0.4-1,1-1h6L13,8z"/>
			<path fill="#8AA4D0" d="M9,5H4H3v1v10v1h1h6h1V8V7L9,5z M4,16V8h2v8H4z M7,16V8h1v8H7z M10,16H9V8h1V16z M4,7V6h6v1H4z"/>
			<polygon fill="#B1C2DF" points="8,3 8,8 13,8 "/>
			<polygon opacity="0.1" points="13,13 13,8 8,8 "/>

		</g>
	</g>
	<!--shortcuts-->
	<g transform="translate(5, 285)">
		<path fill="#6386C0" d="M15.3,24.7c-0.4-0.4-0.4-1,0-1.4l6-6c0.2-0.2,0.4-0.3,0.7-0.3c0.1,0,0.3,0,0.4,0.1c0.4,0.2,0.6,0.5,0.6,0.9
		v2h1c0.4,0,0.7-0.1,1-0.3v-3.4v-1.1v-0.1v-1V12L15,2H6.5C5.7,2,5,2.7,5,3.5v23C5,27.3,5.7,28,6.5,28h12.1L15.3,24.7z"/>
		<polygon fill="#B1C2DF" points="15,2 15,12 25,12 	"/>
		<path fill="#6EAD26" d="M25,15.1L25,15.1c1.2,0.5,2,1.6,2,2.9c0,1.7-1.3,3-3,3h-2v-3l-6,6l6,6v-3h2c3.3,0,6-2.7,6-6
		C30,18,27.8,15.6,25,15.1z"/>
		<path opacity="0.1" d="M21.3,17.3c0.2-0.2,0.4-0.3,0.7-0.3c0.1,0,0.3,0,0.4,0.1c0.4,0.2,0.6,0.5,0.6,0.9v2l0,0h1
		c0.4,0,0.7-0.1,1-0.3v-3.4c0,0,0,0,0,0v-1.1v-0.1v-1c0,0,0,0,0,0V12H15l5.8,5.8L21.3,17.3z"/>
	</g>

	<!--recent records-->
	<g transform="translate(9,329), scale(0.75)">
		<circle fill="#6386C0" cx="15" cy="15" r="13.5"></circle>
		<polygon fill="#FFFFFF" points="16.5 13.5 16.5 4.5 13.5 4.5 13.5 16.5 22.5 16.5 22.5 13.5"></polygon>
	</g>

	<!--quicksearch searchform-->
	<g transform="translate(3,367), scale(0.95)">
		<path d="M21,0 L9,0 C8.1,0 7.5,0.6 7.5,1.5 L7.5,22.5 L16.2,22.5 L16.2,27 L27,27 C27.9,27 28.5,26.4 28.5,25.5 L28.5,7.5 L21,0 Z" id="Shape" fill="#6386C0"></path>
		<polygon id="Shape" fill="#B1C2DF" points="21 0 21 7.5 28.5 7.5"></polygon>
		<g transform="translate(0.000000, 6.000000)" id="Shape">
						<path d="M20.4,17.4 C20.4,17.4 16.5,13.5 15.6,12.6 C16.2,11.55 16.5,10.35 16.5,9 C16.5,4.8 13.2,1.5 9,1.5 C4.8,1.5 1.5,4.8 1.5,9 C1.5,13.2 4.8,16.5 9,16.5 C10.35,16.5 11.55,16.2 12.6,15.6 L17.4,20.4 C18.3,21.3 19.5,21.3 20.4,20.4 C21.15,19.5 21.15,18.15 20.4,17.4 Z" fill="#404040"></path>
			<path d="M9,1.5 C13.2,1.5 16.5,4.8 16.5,9 C16.5,10.35 16.2,11.55 15.6,12.6 C16.5,13.5 20.4,17.4 20.4,17.4 C21.3,18.3 21.3,19.5 20.4,20.4 C19.95,20.85 19.5,21 18.9,21 C18.3,21 17.85,20.85 17.4,20.4 L12.6,15.6 C11.55,16.2 10.35,16.5 9,16.5 C4.8,16.5 1.5,13.2 1.5,9 C1.5,4.8 4.8,1.5 9,1.5 L9,1.5 Z M9,0 C4.05,0 0,4.05 0,9 C0,13.95 4.05,18 9,18 C10.05,18 11.25,17.85 12.3,17.4 L16.35,21.45 C17.1,22.2 18,22.5 18.9,22.5 C19.8,22.5 20.85,22.05 21.45,21.45 C22.8,20.1 22.8,17.7 21.45,16.35 L17.4,12.3 C17.85,11.25 18,10.2 18,9 C18,4.05 13.95,0 9,0 L9,0 Z" fill="#FFFFFF"></path>
					</g>
		<circle id="Oval" fill="#D8E1EF" cx="9" cy="15" r="4.5"></circle>
		<polygon id="Shape" fill="#000000" opacity="0.1" points="28.5 15 28.5 7.5 21 7.5"></polygon>
	</g>

	<!--settings-->
	<g transform="translate(5,405)">
		<path fill="#6386C0" d="M27.9,20c0-0.3,0.1-0.7,0.1-1s0-0.7-0.1-1h-2c-0.1-0.6-0.2-1.1-0.4-1.6l1.7-1c-0.3-0.6-0.6-1.2-1-1.7l-1.7,1
	c-0.3-0.4-0.7-0.8-1.2-1.2l1-1.7c-0.5-0.4-1.1-0.7-1.7-1l-1,1.7c-0.5-0.2-1-0.3-1.6-0.4v-2c-0.3,0-0.7-0.1-1-0.1s-0.7,0-1,0.1v2
	c-0.6,0.1-1.1,0.2-1.6,0.4l-1-1.7c-0.6,0.3-1.2,0.6-1.7,1l1,1.7c-0.4,0.3-0.8,0.7-1.2,1.2l-1.7-1c-0.4,0.5-0.7,1.1-1,1.7l1.7,1
	c-0.2,0.5-0.3,1-0.4,1.6h-2c0,0.3-0.1,0.7-0.1,1s0,0.7,0.1,1h2c0.1,0.6,0.2,1.1,0.4,1.6l-1.7,1c0.3,0.6,0.6,1.2,1,1.7l1.7-1
	c0.3,0.4,0.7,0.8,1.2,1.2l-1,1.7c0.5,0.4,1.1,0.7,1.7,1l1-1.7c0.5,0.2,1,0.3,1.6,0.4v2c0.3,0,0.7,0.1,1,0.1s0.7,0,1-0.1v-2
	c0.6-0.1,1.1-0.2,1.6-0.4l1,1.7c0.6-0.3,1.2-0.6,1.7-1l-1-1.7c0.4-0.3,0.8-0.7,1.2-1.2l1.7,1c0.4-0.5,0.7-1.1,1-1.7l-1.7-1
	c0.2-0.5,0.3-1,0.4-1.6H27.9z M19,23c-2.2,0-4-1.8-4-4s1.8-4,4-4s4,1.8,4,4S21.2,23,19,23z"/>
		<path fill="#6386C0" d="M14.5,8h-1.6c-0.1-0.4-0.2-0.7-0.4-1l1.2-1.2c0.2-0.2,0.2-0.5,0-0.7l-0.7-0.7c-0.2-0.2-0.5-0.2-0.7,0L11,5.6
	c-0.3-0.2-0.7-0.3-1-0.4V3.5C10,3.2,9.8,3,9.5,3h-1C8.2,3,8,3.2,8,3.5v1.6C7.6,5.2,7.3,5.4,7,5.6L5.8,4.4c-0.2-0.2-0.5-0.2-0.7,0
	L4.4,5.1c-0.2,0.2-0.2,0.5,0,0.7L5.6,7C5.4,7.3,5.2,7.6,5.1,8H3.5C3.2,8,3,8.2,3,8.5v1C3,9.8,3.2,10,3.5,10h1.6
	c0.1,0.4,0.2,0.7,0.4,1l-1.2,1.2c-0.2,0.2-0.2,0.5,0,0.7l0.7,0.7c0.2,0.2,0.5,0.2,0.7,0L7,12.4c0.3,0.2,0.7,0.3,1,0.4v1.6
	C8,14.8,8.2,15,8.5,15h1c0.3,0,0.5-0.2,0.5-0.5v-1.6c0.4-0.1,0.7-0.2,1-0.4l1.2,1.2c0.2,0.2,0.5,0.2,0.7,0l0.7-0.7
	c0.2-0.2,0.2-0.5,0-0.7L12.4,11c0.2-0.3,0.3-0.7,0.4-1h1.6c0.3,0,0.5-0.2,0.5-0.5v-1C15,8.2,14.8,8,14.5,8z M9,11c-1.1,0-2-0.9-2-2
	s0.9-2,2-2s2,0.9,2,2S10.1,11,9,11z"/>

		</g>

	<!--timeoff-->
	<g transform="translate(5,445)">
		<path fill="#D8E1EF" d="M23,15c1.062,0,2.072,0.212,3,0.589V11H4v13.5C4,25.328,4.671,26,5.5,26h10.089
	C15.212,25.072,15,24.062,15,23C15,18.589,18.589,15,23,15z"/>
		<path fill="#8AA4D0" d="M9.132,20.33c0.238-0.566,0.801-1.166,1.688-1.799c0.77-0.551,1.268-0.945,1.494-1.184
	c0.348-0.371,0.521-0.777,0.521-1.22c0-0.358-0.1-0.658-0.299-0.896c-0.199-0.238-0.484-0.357-0.855-0.357
	c-0.508,0-0.854,0.189-1.037,0.568c-0.105,0.219-0.168,0.566-0.188,1.043H8.833c0.027-0.723,0.158-1.307,0.393-1.752
	c0.446-0.848,1.237-1.271,2.375-1.271c0.899,0,1.615,0.249,2.146,0.747c0.531,0.498,0.798,1.157,0.798,1.978
	c0,0.629-0.188,1.188-0.563,1.677c-0.247,0.323-0.652,0.686-1.215,1.084l-0.669,0.475c-0.418,0.298-0.705,0.513-0.859,0.646
	c-0.154,0.133-0.284,0.287-0.39,0.463h3.709V22H8.739C8.755,21.391,8.886,20.834,9.132,20.33z"/>
		<path fill="#8AA4D0" d="M17.879,16.861c-0.139-0.049-0.26-0.121-0.357-0.223c-0.19-0.195-0.285-0.447-0.285-0.757
	c0-0.336,0.095-0.599,0.285-0.788c0.188-0.189,0.453-0.284,0.789-0.284c0.342,0,0.604,0.095,0.791,0.284
	c0.185,0.188,0.275,0.449,0.277,0.781c0.493-0.252,1.016-0.451,1.561-0.597c-0.084-0.441-0.301-0.829-0.658-1.163
	c-0.465-0.436-1.123-0.653-1.973-0.653c-0.851,0-1.509,0.218-1.975,0.653c-0.465,0.436-0.697,0.962-0.697,1.578
	c0,0.277,0.062,0.576,0.184,0.895c0.123,0.319,0.392,0.614,0.804,0.889c-0.415,0.194-0.731,0.485-0.946,0.873
	c-0.216,0.387-0.323,0.817-0.323,1.295c0,0.252,0.042,0.487,0.103,0.713C15.939,18.984,16.782,17.777,17.879,16.861z"/>
		<circle fill="#EDA133" cx="23" cy="23" r="7"/>
		<polygon fill="#FFFFFF" points="27,24 22,24 22,18 24,18 24,22 27,22 "/>
		<rect fill="none" width="30" height="30"/>
		<path fill="#F5452B" d="M24.5,4h-19C4.671,4,4,4.671,4,5.5V11h22V5.5C26,4.671,25.328,4,24.5,4z"/>
		<rect x="12" y="6" fill="#FFFFFF" width="6" height="1"/>

	</g>


	<!--payroll-->
	<g transform="translate(5,485)">
		<path fill="#92C15C" d="M18.1,17.7c-0.1,0.1-0.2,0.2-0.4,0.2l-2.6,0.9c-0.3,0.1-0.6,0.2-0.9,0.2c-0.6,0-1.1-0.2-1.4-0.7
		c-0.2-0.3-0.5-0.9-0.1-2l0.9-2.6c0-0.1,0.1-0.3,0.2-0.4l2.4-2.4H2v13h18l8-8v-5h-3.2L18.1,17.7z"/>
		<rect x="4" y="13" fill="#B6D692" width="6" height="1"/>
		<rect x="4" y="15" fill="#B6D692" width="6" height="1"/>
		<rect x="4" y="21" fill="#B6D692" width="17" height="1"/>
		<rect x="24" y="13" fill="#B6D692" width="2" height="1"/>
		<rect x="4" y="18" fill="#FFFFFF" width="2" height="1"/>
		<rect x="19" y="18" fill="#FFFFFF" width="1" height="1"/>
		<polygon fill="#6EAD26" points="20,24 20,16 28,16 	"/>
		<polygon opacity="0.1" points="20,24 20,16 28,16 	"/>
		<path fill="#6386C0" d="M27.4,4.1c-0.8-0.8-2-0.8-2.8,0l-0.5,0.5L23.5,4l-1-1l-1,1l-4,4l1,1l4-4l0.6,0.6l-8.5,8.5l-0.9,2.6
		c-0.4,1,0.2,1.6,1.2,1.2l2.6-0.9l10-10l0,0C28.2,6.1,28.2,4.9,27.4,4.1z"/>
		<g>
			<polygon fill="#6EAD26" points="17.7,9.6 17.1,9 2,9 2,10 17.3,10 		"/>
			<polygon fill="#6EAD26" points="25.8,10 28,10 28,9 26.8,9 		"/>
		</g>
		<g>
			<path fill="#FFFFFF" d="M12.8,18.3c-0.1-0.1-0.1-0.2-0.2-0.3H7v1h7.2C13.6,19,13.1,18.8,12.8,18.3z"/>
			<path fill="#FFFFFF" d="M15.2,18.8c-0.3,0.1-0.6,0.2-0.9,0.2H18v-1h-0.6L15.2,18.8z"/>
		</g>
	</g>

	<!--expensereports purchases-->
	<g transform="translate(5,525)">
		<path fill="#6386C0" d="M18,17c0.695,0,1.365,0.105,2,0.295C20.635,17.105,21.305,17,22,17c1.074,0,2.089,0.251,3,0.686V12L15,2H6.5
	C5.671,2,5,2.671,5,3.5v23C5,27.328,5.671,28,6.5,28h5.764C11.47,26.865,11,25.487,11,24C11,20.141,14.14,17,18,17z"/>
		<polygon fill="#B1C2DF" points="15,2 15,12 25,12 "/>
		<path opacity="0.1" d="M25.001,17.686V12h-10l5.241,5.241C20.806,17.094,21.391,17,22,17C23.075,17,24.09,17.251,25.001,17.686z"/>
		<circle fill="#FFD43D" cx="22" cy="24" r="6"/>
		<path fill="#FFE99E" d="M24.854,29.278c1.024-0.555,1.869-1.399,2.424-2.424l-8.133-8.133c-1.024,0.556-1.869,1.399-2.424,2.424
	L24.854,29.278z"/>
		<g>
			<path fill="#EDA133" d="M22,20.058c2.175,0,3.943,1.769,3.943,3.942c0,2.175-1.769,3.943-3.943,3.943S18.057,26.175,18.057,24
				C18.057,21.826,19.825,20.058,22,20.058 M22,18.857c-2.841,0-5.144,2.302-5.144,5.143s2.303,5.144,5.144,5.144
				s5.144-2.303,5.144-5.144S24.841,18.857,22,18.857L22,18.857z"/>
		</g>
		<circle fill="#FFD43D" cx="18" cy="24" r="6"/>
		<path fill="#FFE99E" d="M20.854,29.278c1.024-0.555,1.869-1.399,2.424-2.424l-8.133-8.133c-1.024,0.556-1.869,1.399-2.424,2.424
	L20.854,29.278z"/>
		<g>
			<path fill="#EDA133" d="M17.901,21.651c-0.049,0.167-0.119,0.299-0.214,0.398c-0.139,0.146-0.318,0.244-0.537,0.293
				c-0.139,0.03-0.38,0.053-0.725,0.068v0.745h1.31v3.84h1.121v-5.567h-0.914C17.942,21.477,17.929,21.551,17.901,21.651z"/>
		</g>
		<g>
			<path fill="#EDA133" d="M18,20.058c2.175,0,3.943,1.769,3.943,3.942c0,2.175-1.769,3.943-3.943,3.943
				c-2.174,0-3.943-1.769-3.943-3.943C14.057,21.826,15.826,20.058,18,20.058 M18,18.857c-2.841,0-5.144,2.302-5.144,5.143
				s2.303,5.144,5.144,5.144s5.144-2.303,5.144-5.144S20.841,18.857,18,18.857L18,18.857z"/>
		</g>

	</g>

	<!--approvals-->
	<g transform="translate(5, 565)">
		<path fill="#6386C0" d="M15,23c0-3.562,2.341-6.584,5.563-7.618C21.556,13.414,22,11.037,22,9c0-3.866-3.134-7-7-7
			c-3.866,0-7,3.134-7,7c0,2.803,0.828,6.258,2.791,8.393C12.958,19.75,8,21,5,22c-1.572,0.523-3,1.343-3,3v1.5
			C2,27.328,2.671,28,3.5,28h13.265C15.663,26.629,15,24.892,15,23z"/>
		<circle fill="#6EAD26" cx="23" cy="23" r="7"/>
		<polygon fill="#FFFFFF" points="26.369,19.369 22.224,23.739 20.631,22.147 19,23.778 22.224,27 28,21 		"/>
		<path opacity="0.1" d="M15,23c0-1.404,0.366-2.724,1.005-3.872c-0.333,0.064-0.672,0.106-1.02,0.106
			c-1.637,0-3.134-0.747-4.304-1.979c0.039,0.044,0.07,0.095,0.109,0.138c1.679,1.826-0.917,2.986-3.567,3.882
			c0.553,0.547,2.366,2.569,7.746,2.569c0.026,0,0.049-0.002,0.076-0.002C15.016,23.565,15,23.284,15,23z"/>

	</g>

	<!--quick add-->
	<g transform="translate(0, 600 ), scale(1.6666666667)">
		<polygon fill="#6386C0" points="19 11 13 11 13 5 11 5 11 11 5 11 5 13 11 13 11 19 13 19 13 13 19 13 19 11"/>
	</g>

	<!--companynews-->
	<g transform="translate(5, 645)">
		<polygon fill="#EDA133" points="14,26 10,26 8,18 12,18 		"/>
		<polygon opacity="0.1" points="8.8,21 12.8,21 12.2,19 8.2,19 		"/>
		<path fill="#F6D099" d="M24,11c1.7,0,3,1.3,3,3s-1.3,3-3,3V11z"/>
		<path fill="#F1B866" d="M8,9h4c0,0,10,0,10-5h2v20h-2c0-5-10-5-10-5H8c-2.8,0-5-2.2-5-5S5.2,9,8,9z"/>
	</g>

	<!--rss-->
	<g transform="translate(8.5,690.5), scale(0.7)" fill="none">
		<circle fill="#EFAB3A" cx="4" cy="25" r="4"></circle>
		<path d="M17.5,12 C8.93958638,12 2,18.9395864 2,27.5" id="Oval" stroke="#EFAB3A" stroke-width="7" transform="translate(9.750000, 19.750000) scale(-1, 1) translate(-9.750000, -19.750000) "></path>
		<path d="M29.5,0 C14.3121694,0 2,12.3121694 2,27.5" id="Oval-Copy" stroke="#EFAB3A" stroke-width="7" transform="translate(15.750000, 13.750000) scale(-1, 1) translate(-15.750000, -13.750000) "></path>
	</g>

	<!--reminders-->
	<g transform="translate(8,730.5), scale(0.8)" fill="none">
		<polyline stroke="#71A82D" stroke-width="2" transform="translate(4.602710, 2.748096) rotate(-14.000000) translate(-4.602710, -2.748096) " points="1 1.94808094 2.65833115 4.49619193 8.20541952 1"></polyline>
		<polyline stroke="#71A82D" stroke-width="2" transform="translate(4.918597, 12.000000) rotate(-14.000000) translate(-4.918597, -12.000000) " points="1.31588681 11.199985 2.97421797 13.748096 8.52130633 10.251904"></polyline>
		<polyline stroke="#71A82D" stroke-width="2" transform="translate(4.918597, 21.000000) rotate(-14.000000) translate(-4.918597, -21.000000) " points="1.31588681 20.199985 2.97421797 22.748096 8.52130633 19.251904"></polyline>
		<rect fill="#B0C0DD" x="12" y="2" width="18" height="3"></rect>
		<rect fill="#B0C0DD" x="12" y="11" width="18" height="3"></rect>
		<rect fill="#B0C0DD" x="12" y="20" width="18" height="3"></rect>
	</g>

	<!--kudos-->
	<g transform="translate(8, 768), scale(0.8)">
		<path d="M4.53236361,14.1627778 L14.3033825,0.952850639 C14.4919507,0.697915846 14.7902545,0.547523459 15.1073503,0.547523459 L16.8840816,0.547523459 C18.048006,1.01785729 18.6299682,1.96938126 18.6299682,3.40209537 C18.6299682,4.83480948 17.6314998,7.39705917 15.634563,11.0888445 L26.3727454,11.0888445 C27.9039844,11.9158038 28.4310714,13.3288807 27.9540064,15.3280753 C28.9319794,15.9177583 29.4209658,16.7467496 29.4209658,17.8150492 C29.4209658,19.4174987 28.5,20.2910884 28.5,20.2910884 C28.9839661,20.7251576 29.2259491,21.478941 29.2259491,22.5524385 C29.2259491,23.7866115 28.8019682,24.6362627 27.9540064,25.1013919 C27.9502823,27.6683632 26.9147492,28.94831 24.8474072,28.9412324 C22.4049092,28.9412324 17.4410723,28.9412324 9.95589647,28.9412324 C6.34020789,28.6891037 4.53236361,27.4091569 4.53236361,25.1013919 C4.53236361,22.793627 4.53236361,19.1474223 4.53236361,14.1627778 Z" id="Path-4" fill="#B0C0DD"></path>
		<rect fill="#6F91C7" x="0" y="12" width="6" height="16"></rect>
	</g>

	<!--kpi meter-->
	<g transform="translate(9, 814), scale(0.7)" fill="none">
		<g  stroke-width="8">
            <path d="M31,15.5 C31,6.93958638 24.0604136,0 15.5,0 C6.93958638,0 0,6.93958638 0,15.5" id="Oval" stroke="#BAC9E3"></path>
			<path d="M25.5150438,3.66957463 C22.8137373,1.38049617 19.3180847,0 15.5,0 C6.93958638,0 1.77635684e-15,6.93958638 1.77635684e-15,15.5" id="Oval" stroke="#71A82D"></path>
        </g>
	</g>
	<!--kpi portlet, kpi scorecard -->
	<g transform="translate(5.5, 850.5), scale(0.85)" fill="none">

		<rect fill="#6f91c7" transform="translate(17.000000, 11.500000) rotate(90.000000) translate(-17.000000, -11.500000) " x="5.5" y="-5.5" width="23" height="34" rx="1"></rect>
		<circle fill="#ffffff" cx="3" cy="18" r="1"></circle>
		<circle fill="#ffffff" cx="13" cy="14" r="1"></circle>
		<circle fill="#ffffff" cx="21" cy="16" r="1"></circle>
		<circle fill="#ffffff" cx="31" cy="14" r="1"></circle>
		<polyline stroke="#ffffff" points="3 17.9082206 12.961941 14.0709158 21.3783422 16 30.9897048 14.0709158"></polyline>
		<g transform="translate(3.000000, 6.000000)" fill="#ffffff">
                <rect x="0" y="0" width="2" height="3"></rect>
            </g>
		<rect stroke="#FFFFFF" fill="#D8D8D8" x="8.5" y="5.5" width="23" height="1"></rect>
		<rect stroke="#FFFFFF" fill="#D8D8D8" x="8.5" y="8.5" width="23" height="1"></rect>
		<polygon fill="#ffffff" points="2.01011051 6.0131329 6.01284312 6.0131329 4.0013663 4"></polygon>
	</g>
	<!--goal portlet-->
	<g transform="translate(5.5, 888.783), scale(0.95)" fill="none">
		<circle cx="14" cy="16" r="7.5" stroke="#7192C5" stroke-width="3"/>
		<circle r="1.5" transform="matrix(-1 0 0 1 14 16)" stroke="#7192C5" stroke-width="3"/>
		<circle cx="14" cy="16" r="12.5" stroke="#7192C5" stroke-width="3"/>
		<path d="M19.4706 6.07039L25.541 0V4.66953L19.4706 10.7399L19.4706 6.07039Z" fill="#F34735"/>
		<path d="M24.1405 10.7403L30.2109 4.66992H25.5414L19.471 10.7403L24.1405 10.7403Z" fill="#F34735"/>
		<path d="M19.4717 8.87207L21.3395 10.7399L14.8021 17.2772C14.2864 17.793 13.4501 17.793 12.9343 17.2772V17.2772C12.4186 16.7614 12.4186 15.9252 12.9343 15.4094L19.4717 8.87207Z" fill="#303030"/>
	</g>
</svg>
