<?xml version="1.0" encoding="UTF-8"?>
<svg width="28px" height="56px" viewBox="0 0 28 56" version="1.1" xmlns="http://www.w3.org/2000/svg" xmlns:xlink="http://www.w3.org/1999/xlink">
	<g id="maximise" stroke="none" fill="#63779a" transform="translate(2, 2)">
		<path  d="M12.75,5 L19,5 L19,11.25 C19,11.664 18.664,12 18.25,12 C17.836,12 17.5,11.664 17.5,11.25 L17.5,7.926 L14.111,11.314 C13.721,11.705 13.088,11.705 12.697,11.314 C12.306,10.924 12.306,10.291 12.697,9.9 L16.097,6.5 L12.75,6.5 C12.336,6.5 12,6.164 12,5.75 C12,5.336 12.336,5 12.75,5 Z M11.25,19 L5,19 L5,12.75 C5,12.336 5.336,12 5.75,12 C6.164,12 6.5,12.336 6.5,12.75 L6.5,16.074 L9.889,12.686 C10.279,12.295 10.912,12.295 11.303,12.686 C11.694,13.076 11.694,13.709 11.303,14.1 L7.903,17.5 L11.25,17.5 C11.664,17.5 12,17.836 12,18.25 C12,18.664 11.664,19 11.25,19 Z"></path>
	</g>
	<g id="maximise_hover" stroke="none" fill="#006aff" transform="translate(2, 30)">
		<path  d="M12.75,5 L19,5 L19,11.25 C19,11.664 18.664,12 18.25,12 C17.836,12 17.5,11.664 17.5,11.25 L17.5,7.926 L14.111,11.314 C13.721,11.705 13.088,11.705 12.697,11.314 C12.306,10.924 12.306,10.291 12.697,9.9 L16.097,6.5 L12.75,6.5 C12.336,6.5 12,6.164 12,5.75 C12,5.336 12.336,5 12.75,5 Z M11.25,19 L5,19 L5,12.75 C5,12.336 5.336,12 5.75,12 C6.164,12 6.5,12.336 6.5,12.75 L6.5,16.074 L9.889,12.686 C10.279,12.295 10.912,12.295 11.303,12.686 C11.694,13.076 11.694,13.709 11.303,14.1 L7.903,17.5 L11.25,17.5 C11.664,17.5 12,17.836 12,18.25 C12,18.664 11.664,19 11.25,19 Z"></path>
	</g>
</svg>