<?xml version="1.0" encoding="UTF-8" standalone="no"?>
<svg version="1.1" xmlns="http://www.w3.org/2000/svg" xmlns:xlink="http://www.w3.org/1999/xlink" x="0px" y="0px" width="20px"
	 height="56px" viewBox="0 0 20 56" xml:space="preserve">
	<g transform="translate(0, 4)">
		<g id="refresh2_reload" transform="rotate(20,9.8488511,9.9061731)" fill="#63779a" stroke="none">
			<path d="M 13.907815,13.606419 C 11.939172,15.877034 8.5038772,16.121739 6.2352564,14.152954 3.9656382,12.184239 3.7221442,8.7518653 5.6888632,6.4823893 7.3869203,4.5227855 10.166778,4.0981967 12.357039,5.2765516 l -1.651808,1.9051801 5.920651,0.2629882 -1.09842,-5.8216686 -1.602779,1.847551 C 10.733992,1.4632351 6.472597,2.0174182 3.9268656,4.9547224 1.1151093,8.1966983 1.4646873,13.104264 4.7075186,15.913954 7.9494943,18.72571 12.859054,18.375991 15.66675,15.1333 c 0.0171,-0.01324 0.03599,-0.04366 0.03599,-0.04366 -0.575935,-0.499341 -1.149192,-1.021596 -1.760787,-1.524746 -0.01367,-0.01124 -0.02102,0.02857 -0.03414,0.04153 z"/>
		</g>
	</g>
	<g transform="translate(0,32)">
		<g id="refresh2_reload_hover" transform="rotate(20,9.8488511,9.9061731)" fill="#006aff" stroke="none">
			<path d="M 13.907815,13.606419 C 11.939172,15.877034 8.5038772,16.121739 6.2352564,14.152954 3.9656382,12.184239 3.7221442,8.7518653 5.6888632,6.4823893 7.3869203,4.5227855 10.166778,4.0981967 12.357039,5.2765516 l -1.651808,1.9051801 5.920651,0.2629882 -1.09842,-5.8216686 -1.602779,1.847551 C 10.733992,1.4632351 6.472597,2.0174182 3.9268656,4.9547224 1.1151093,8.1966983 1.4646873,13.104264 4.7075186,15.913954 7.9494943,18.72571 12.859054,18.375991 15.66675,15.1333 c 0.0171,-0.01324 0.03599,-0.04366 0.03599,-0.04366 -0.575935,-0.499341 -1.149192,-1.021596 -1.760787,-1.524746 -0.01367,-0.01124 -0.02102,0.02857 -0.03414,0.04153 z"/>
		</g>
	</g>
</svg>